# File created by Blade
# Date/Time:  Wed Jan 21 16:09:38 2015
# Frame Rate: 120.000 fps
#------------------------------------------------------
:FULLY-SPECIFIED
:DEGREES
341
root 13.236563 33.377889 -21.594271 -177.557887 78.045352 -221.968782
Spine 16.067771 -6.647527 0.354527
Head -12.047594 -6.779230 2.465269
LeftShoulder -13.111327 -43.017696 24.637543
LeftArm -21.866541 1.362698 -13.397063
LeftForeArm -1.538930 -0.000000 0.463212
LeftHand -10.926857 -0.000000 8.339256
LeftHandThumb1 -26.253704 0.000000 33.147579
RightShoulder -11.397531 3.322546 -17.591776
RightArm -23.606051 43.374175 15.118842
RightForeArm -23.738986 -0.000000 15.117337
RightHand -17.628390 -0.000000 -13.828556
RightHandThumb1 -24.326973 -0.000000 -32.862282
LeftUpLeg -20.862950 -3.691099 -13.580467
LeftLeg -15.095092 -0.000000 0.000000
LeftFoot -8.361007 27.564504 14.986905
LeftToeBase -138.300353 -0.000000 0.000000
RightUpLeg -65.019355 -1.999890 -7.762886
RightLeg -4.277966 -0.000000 0.000000
RightFoot 10.527703 -30.064363 -0.682827
RightToeBase 27.072217 -0.000000 -0.000000
342
root 13.221409 33.371025 -21.588624 -177.897312 78.014985 -222.728625
Spine 16.682129 -6.690720 0.305478
Head -12.496448 -6.706804 2.577548
LeftShoulder -12.984711 -43.232263 24.645617
LeftArm -22.211829 1.383644 -13.448258
LeftForeArm -2.078303 0.000000 0.508480
LeftHand -11.070757 0.000000 8.471295
LeftHandThumb1 -26.253704 0.000000 33.147579
RightShoulder -11.331816 3.323888 -17.505195
RightArm -23.848893 43.532387 15.098926
RightForeArm -23.542213 -0.000000 15.125806
RightHand -17.628531 -0.000000 -14.167208
RightHandThumb1 -24.326973 -0.000000 -32.862282
LeftUpLeg -21.243195 -3.831013 -13.696495
LeftLeg -15.141757 -0.000000 0.000000
LeftFoot -8.337883 27.551736 14.959190
LeftToeBase -138.317655 -0.000000 0.000000
RightUpLeg -65.441119 -2.087476 -7.878198
RightLeg -4.309003 -0.000000 0.000000
RightFoot 10.544702 -30.100461 -0.774770
RightToeBase 27.030850 -0.000000 -0.000000
343
root 13.202542 33.364675 -21.589987 -178.478444 77.964791 -223.790226
Spine 17.227978 -6.770725 0.224295
Head -12.996329 -6.729194 2.596056
LeftShoulder -12.909264 -43.226498 24.560955
LeftArm -22.345960 1.057484 -13.425152
LeftForeArm -2.464117 -0.000000 0.433673
LeftHand -11.048563 -0.000000 8.565519
LeftHandThumb1 -26.253704 0.000000 33.147579
RightShoulder -11.190254 3.313594 -17.518828
RightArm -24.171470 43.433088 15.199524
RightForeArm -23.109040 0.000000 15.183067
RightHand -17.732537 -0.000000 -14.455079
RightHandThumb1 -24.326973 -0.000000 -32.862282
LeftUpLeg -21.691014 -3.958484 -13.914416
LeftLeg -15.147878 -0.000000 0.000000
LeftFoot -8.334759 27.505423 14.861784
LeftToeBase -138.394160 -0.000000 0.000000
RightUpLeg -65.941041 -2.226058 -8.072344
RightLeg -4.301510 -0.000000 0.000000
RightFoot 10.537940 -30.035171 -0.865012
RightToeBase 27.119444 -0.000000 -0.000000
344
root 13.186019 33.358653 -21.581531 -178.827985 77.911919 -224.617526
Spine 17.794551 -6.696599 0.220614
Head -13.555909 -6.802623 2.662379
LeftShoulder -12.713470 -43.343806 24.425922
LeftArm -22.456582 0.914300 -13.489137
LeftForeArm -3.040184 -0.000000 0.340072
LeftHand -11.115847 -0.000000 8.674906
LeftHandThumb1 -26.253704 0.000000 33.147579
RightShoulder -11.374754 3.505585 -17.604432
RightArm -24.301263 43.221500 15.450605
RightForeArm -22.846997 -0.000000 15.134609
RightHand -17.755851 0.000000 -15.017711
RightHandThumb1 -24.326973 -0.000000 -32.862282
LeftUpLeg -22.154640 -4.077106 -14.066863
LeftLeg -15.133659 -0.000000 0.000000
LeftFoot -8.323374 27.477390 14.887031
LeftToeBase -138.386273 -0.000000 0.000000
RightUpLeg -66.434045 -2.357124 -8.164373
RightLeg -4.304613 -0.000000 0.000000
RightFoot 10.538264 -30.003383 -0.936231
RightToeBase 27.042759 -0.000000 -0.000000
345
root 13.169760 33.351705 -21.572446 -179.077281 77.848330 -225.317876
Spine 18.378390 -6.786854 0.203837
Head -14.080956 -6.805273 2.704536
LeftShoulder -12.710381 -43.326535 24.422904
LeftArm -22.575225 0.662086 -13.564795
LeftForeArm -3.683932 -0.000000 0.282821
LeftHand -11.105984 -0.000000 8.773292
LeftHandThumb1 -26.253704 0.000000 33.147579
RightShoulder -11.358705 3.422795 -17.583028
RightArm -24.456520 43.477772 15.595837
RightForeArm -22.801754 -0.000000 15.167276
RightHand -17.801764 -0.000000 -15.290901
RightHandThumb1 -24.326973 -0.000000 -32.862282
LeftUpLeg -22.590287 -4.197245 -14.194182
LeftLeg -15.128694 -0.000000 0.000000
LeftFoot -8.299139 27.424843 14.921840
LeftToeBase -138.369834 -0.000000 0.000000
RightUpLeg -66.895302 -2.482528 -8.254520
RightLeg -4.315065 -0.000000 0.000000
RightFoot 10.524890 -30.012380 -1.000321
RightToeBase 27.077569 -0.000000 -0.000000
346
root 13.155652 33.344158 -21.569196 -179.497659 77.837422 -226.129861
Spine 19.011567 -6.745653 0.173994
Head -14.504771 -6.698177 2.768067
LeftShoulder -12.461424 -43.575979 24.359395
LeftArm -22.973489 0.674571 -13.631931
LeftForeArm -4.312851 -0.000000 0.329228
LeftHand -11.180829 0.000000 9.029839
LeftHandThumb1 -26.253704 0.000000 33.147579
RightShoulder -11.336495 3.490557 -17.587146
RightArm -24.731700 43.464316 15.655725
RightForeArm -22.718694 -0.000000 15.116578
RightHand -17.898266 -0.000000 -15.450932
RightHandThumb1 -24.326973 -0.000000 -32.862282
LeftUpLeg -22.947518 -4.233486 -14.370835
LeftLeg -15.155279 -0.000000 0.000000
LeftFoot -8.293905 27.348287 14.926670
LeftToeBase -138.368434 -0.000000 0.000000
RightUpLeg -67.303503 -2.549521 -8.398052
RightLeg -4.317723 -0.000000 0.000000
RightFoot 10.527465 -29.999460 -1.080287
RightToeBase 27.316878 -0.000000 -0.000000
347
root 13.143014 33.337474 -21.561942 -179.650438 77.741198 -226.716019
Spine 19.602592 -6.903877 0.199648
Head -14.982980 -6.611192 2.743456
LeftShoulder -12.418468 -43.553712 24.274896
LeftArm -23.139310 0.333527 -13.614098
LeftForeArm -4.678156 -0.000000 0.304821
LeftHand -11.213203 -0.000000 9.133936
LeftHandThumb1 -26.253704 0.000000 33.147579
RightShoulder -11.318639 3.464918 -17.591343
RightArm -24.887586 43.680151 15.807368
RightForeArm -22.621810 -0.000000 15.181116
RightHand -17.869064 -0.000000 -15.913161
RightHandThumb1 -24.326973 -0.000000 -32.862282
LeftUpLeg -23.353537 -4.374829 -14.483269
LeftLeg -15.156296 -0.000000 0.000000
LeftFoot -8.272291 27.301919 14.958415
LeftToeBase -138.343006 -0.000000 0.000000
RightUpLeg -67.732977 -2.697815 -8.497265
RightLeg -4.328695 -0.000000 0.000000
RightFoot 10.514154 -30.006600 -1.225928
RightToeBase 27.317789 -0.000000 -0.000000
348
root 13.139812 33.332757 -21.547321 -179.471770 77.713230 -226.815818
Spine 20.386641 -6.926590 0.319188
Head -15.502121 -6.555603 2.805406
LeftShoulder -12.255763 -43.734164 24.222357
LeftArm -23.504799 0.162904 -13.663067
LeftForeArm -5.138972 -0.000000 0.367711
LeftHand -11.236926 -0.000000 9.384790
LeftHandThumb1 -26.253704 0.000000 33.147579
RightShoulder -11.294765 3.521654 -17.564388
RightArm -25.095532 43.720705 15.884155
RightForeArm -22.422994 -0.000000 15.155652
RightHand -17.917146 -0.000000 -16.078226
RightHandThumb1 -24.326973 -0.000000 -32.862282
LeftUpLeg -23.599745 -4.407381 -14.492069
LeftLeg -15.212796 -0.000000 0.000000
LeftFoot -8.236555 27.248583 15.032158
LeftToeBase -138.300525 -0.000000 0.000000
RightUpLeg -67.974043 -2.749398 -8.463597
RightLeg -4.419991 -0.000000 0.000000
RightFoot 10.536997 -30.026511 -1.242123
RightToeBase 27.472167 -0.000000 -0.000000
349
root 13.126041 33.330492 -21.532471 -179.553992 77.628196 -227.309549
Spine 21.018140 -7.050706 0.345780
Head -15.991360 -6.465751 2.806678
LeftShoulder -12.130113 -43.720813 24.083308
LeftArm -23.683988 0.126410 -13.725586
LeftForeArm -5.796694 -0.000000 0.324911
LeftHand -11.291577 0.000000 9.601651
LeftHandThumb1 -26.253704 0.000000 33.147579
RightShoulder -11.243702 3.544737 -17.563387
RightArm -25.266611 43.767801 16.040796
RightForeArm -22.203270 -0.000000 15.107755
RightHand -17.918438 -0.000000 -16.318161
RightHandThumb1 -24.326973 -0.000000 -32.862282
LeftUpLeg -24.005510 -4.529076 -14.573776
LeftLeg -15.194757 -0.000000 0.000000
LeftFoot -8.221287 27.180542 15.063352
LeftToeBase -138.338353 -0.000000 0.000000
RightUpLeg -68.384723 -2.857674 -8.591519
RightLeg -4.430321 -0.000000 0.000000
RightFoot 10.554322 -30.089993 -1.268953
RightToeBase 27.515623 -0.000000 -0.000000
350
root 13.115097 33.325592 -21.528209 -179.743827 77.578252 -227.841237
Spine 21.721798 -7.139419 0.378294
Head -16.470136 -6.384846 2.800487
LeftShoulder -11.995665 -43.779841 24.016458
LeftArm -23.980409 -0.036225 -13.778924
LeftForeArm -6.121257 -0.000000 0.317142
LeftHand -11.349498 -0.000000 9.454935
LeftHandThumb1 -26.253704 0.000000 33.147579
RightShoulder -11.210906 3.528296 -17.565854
RightArm -25.506129 44.022732 16.097437
RightForeArm -22.220431 -0.000000 15.190200
RightHand -18.107978 -0.000000 -16.156884
RightHandThumb1 -24.326973 -0.000000 -32.862282
LeftUpLeg -24.314378 -4.615914 -14.683407
LeftLeg -15.222255 -0.000000 0.000000
LeftFoot -8.190863 27.156743 15.073953
LeftToeBase -138.399784 -0.000000 0.000000
RightUpLeg -68.720594 -2.949077 -8.704979
RightLeg -4.446328 -0.000000 0.000000
RightFoot 10.544021 -30.084979 -1.342453
RightToeBase 27.428225 -0.000000 -0.000000
